<svg xmlns="http://www.w3.org/2000/svg" fill="none" viewBox="0 0 16 16" class="design-iconfont">
  <mask id="tk7qim553a" style="mask-type:alpha" maskUnits="userSpaceOnUse" x="0" y="0" width="16" height="16">
    <path fill-rule="evenodd" clip-rule="evenodd" d="M0 0H16V16H0V0Z" fill="#fff"/>
  </mask>
  <g mask="url(#tk7qim553a)">
    <path fill-rule="evenodd" clip-rule="evenodd" d="M0 7.99829C0 3.58795 3.58843 0 8 0C12.4116 0 16 3.58795 16 7.99829C16 12.4106 12.4116 16 8 16C3.58843 16 0 12.4106 0 7.99829ZM4.99054 7.55241C4.74447 7.82346 4.76302 8.24637 5.0335 8.49445L6.91022 10.1954C7.03325 10.3033 7.19144 10.3649 7.34571 10.3649H7.36036C7.54881 10.3649 7.72164 10.2892 7.84858 10.1524L11.0015 6.75395C11.1236 6.62405 11.187 6.4541 11.1812 6.27536C11.1753 6.09809 11.1001 5.93303 10.9693 5.81143C10.8472 5.69666 10.6861 5.63367 10.5172 5.63367C10.3317 5.63367 10.154 5.7118 10.028 5.84756L7.32033 8.76403L5.9328 7.50553C5.80879 7.39419 5.64963 7.33266 5.48461 7.33266C5.29518 7.33266 5.11454 7.41275 4.99054 7.55241Z" fill="#13AC76"/>
  </g>
</svg>
