<svg xmlns="http://www.w3.org/2000/svg" fill="none" viewBox="0 0 14 13" class="design-iconfont">
  <path fill-rule="evenodd" clip-rule="evenodd" d="M13.0488 6.5C13.0488 10.0898 10.1387 13 6.54883 13C2.95898 13 0.0488281 10.0898 0.0488281 6.5C0.0488281 2.91015 2.95898 0 6.54883 0C10.1387 0 13.0488 2.91015 13.0488 6.5ZM1.04883 6.5C1.04883 9.53756 3.51127 12 6.54883 12C9.58639 12 12.0488 9.53756 12.0488 6.5C12.0488 3.46244 9.58639 1 6.54883 1C3.51127 1 1.04883 3.46244 1.04883 6.5Z" fill="#1573FF"/>
  <path fill-rule="evenodd" clip-rule="evenodd" d="M7.04783 6H10.0488V7H7.04783L7.04883 10H6.04883L6.04783 7H3.04883V6H6.04783L6.04883 3H7.04883L7.04783 6Z" fill="#1573FF" stroke="#000" stroke-opacity=".01" stroke-linecap="round" stroke-linejoin="round"/>
</svg>
