<svg xmlns="http://www.w3.org/2000/svg" fill="none" viewBox="0 0 26 16" class="design-iconfont">
  <path d="M2.844 11.684C1.996 11.684 1.384 11.548 1.008 11.276C0.64 11.012 0.456 10.552 0.456 9.89605C0.456 9.52005 0.512 9.02805 0.624 8.42005L1.272 4.78405C1.344 4.37605 1.432 4.03205 1.536 3.75205C1.64 3.47205 1.776 3.24005 1.944 3.05605C2.112 2.86405 2.344 2.71605 2.64 2.61205C2.944 2.50005 3.376 2.44405 3.936 2.44405H5.316C5.852 2.44405 6.296 2.49605 6.648 2.60005C7.008 2.70405 7.276 2.88805 7.452 3.15205C7.628 3.41605 7.716 3.77605 7.716 4.23205C7.716 4.29605 7.708 4.41605 7.692 4.59205C7.684 4.76005 7.632 5.12805 7.536 5.69605L6.888 9.34405C6.808 9.80805 6.704 10.192 6.576 10.496C6.456 10.792 6.296 11.024 6.096 11.192C5.904 11.368 5.656 11.492 5.352 11.564C5.056 11.644 4.684 11.684 4.236 11.684H2.844ZM3.468 10.376H4.08C4.32 10.376 4.524 10.348 4.692 10.292C4.868 10.228 5.012 10.104 5.124 9.92005C5.236 9.72805 5.34 9.35605 5.436 8.80405L5.88 6.18805C6.04 5.28405 6.12 4.72405 6.12 4.50805C6.12 4.30805 6.076 4.15605 5.988 4.05205C5.908 3.94005 5.776 3.86405 5.592 3.82405C5.408 3.77605 5.112 3.75205 4.704 3.75205H4.08C3.84 3.75205 3.644 3.78005 3.492 3.83605C3.348 3.88405 3.228 3.96805 3.132 4.08805C3.044 4.20005 2.968 4.35205 2.904 4.54405C2.848 4.73605 2.792 4.99605 2.736 5.32405L2.28 7.92805C2.12 8.82405 2.04 9.38805 2.04 9.62005C2.04 9.85205 2.1 10.024 2.22 10.136C2.348 10.248 2.524 10.316 2.748 10.34C2.972 10.364 3.212 10.376 3.468 10.376ZM11.8579 2.51605H13.3459L11.7499 11.6H10.2619L11.5699 4.12405C11.1939 4.38805 10.4699 4.80805 9.39788 5.38405L8.76188 4.20805L11.8579 2.51605Z" fill="#D9001B"/>
</svg>
