<svg xmlns="http://www.w3.org/2000/svg" fill="none" viewBox="0 0 18 15" class="design-iconfont">
  <path d="M3.2779 10.7721L8.58134 13.9542C8.99792 14.2042 9.5279 13.9041 9.5279 13.4183V0.626011C9.5279 0.140202 8.99792 -0.159869 8.58134 0.0900781L3.2779 3.27214H0.908925C0.494986 3.27214 0.159312 3.6075 0.158926 4.02144L0.153321 10.0214C0.152933 10.4359 0.488833 10.7721 0.90332 10.7721H3.2779ZM4.5279 3.97988L8.2779 1.72988V12.3144L4.5279 10.0644V3.97988ZM3.2779 9.52214H1.40379L1.40846 4.52214H3.2779V9.52214Z" fill="#fff"/>
  <path d="M15.1717 4.18072C14.7705 3.27674 14.1799 2.44953 13.4291 1.74878L14.282 0.834957C15.1526 1.64747 15.8431 2.61206 16.3143 3.67366C16.7854 4.73526 17.0279 5.87308 17.0279 7.02214C17.0279 8.17121 16.7854 9.30902 16.3143 10.3706C15.8431 11.4322 15.1526 12.3968 14.282 13.2093L13.4291 12.2955C14.1799 11.5948 14.7705 10.7675 15.1717 9.86356C15.5728 8.95985 15.7779 7.99461 15.7779 7.02214C15.7779 6.04967 15.5728 5.08444 15.1717 4.18072Z" fill="#fff"/>
  <path d="M12.653 7.02248C12.6539 5.93132 12.2033 4.83043 11.3123 3.95512L12.1883 3.06341C13.3068 4.16218 13.9042 5.58013 13.903 7.02355C13.9017 8.467 13.3019 9.88423 12.1814 10.9815L11.3068 10.0884C12.1995 9.21417 12.652 8.11369 12.653 7.02248Z" fill="#fff"/>
</svg>
