<svg xmlns="http://www.w3.org/2000/svg" fill="none" viewBox="0 0 28 16" class="design-iconfont">
  <path d="M2.844 13.684C1.996 13.684 1.384 13.548 1.008 13.276C0.64 13.012 0.456 12.552 0.456 11.896C0.456 11.52 0.512 11.028 0.624 10.42L1.272 6.78405C1.344 6.37605 1.432 6.03205 1.536 5.75205C1.64 5.47205 1.776 5.24005 1.944 5.05605C2.112 4.86405 2.344 4.71605 2.64 4.61205C2.944 4.50005 3.376 4.44405 3.936 4.44405H5.316C5.852 4.44405 6.296 4.49605 6.648 4.60005C7.008 4.70405 7.276 4.88805 7.452 5.15205C7.628 5.41605 7.716 5.77605 7.716 6.23205C7.716 6.29605 7.708 6.41605 7.692 6.59205C7.684 6.76005 7.632 7.12805 7.536 7.69605L6.888 11.344C6.808 11.808 6.704 12.192 6.576 12.496C6.456 12.792 6.296 13.024 6.096 13.192C5.904 13.368 5.656 13.492 5.352 13.564C5.056 13.644 4.684 13.684 4.236 13.684H2.844ZM3.468 12.376H4.08C4.32 12.376 4.524 12.348 4.692 12.292C4.868 12.228 5.012 12.104 5.124 11.92C5.236 11.728 5.34 11.356 5.436 10.804L5.88 8.18805C6.04 7.28405 6.12 6.72405 6.12 6.50805C6.12 6.30805 6.076 6.15605 5.988 6.05205C5.908 5.94005 5.776 5.86405 5.592 5.82405C5.408 5.77605 5.112 5.75205 4.704 5.75205H4.08C3.84 5.75205 3.644 5.78005 3.492 5.83605C3.348 5.88405 3.228 5.96805 3.132 6.08805C3.044 6.20005 2.968 6.35205 2.904 6.54405C2.848 6.73605 2.792 6.99605 2.736 7.32405L2.28 9.92805C2.12 10.824 2.04 11.388 2.04 11.62C2.04 11.852 2.1 12.024 2.22 12.136C2.348 12.248 2.524 12.316 2.748 12.34C2.972 12.364 3.212 12.376 3.468 12.376ZM13.0464 4.51605C13.1744 4.51605 13.2944 4.52005 13.4064 4.52805C13.5184 4.52805 13.6224 4.53605 13.7184 4.55205C13.8144 4.56005 13.9144 4.57605 14.0184 4.60005C14.1224 4.61605 14.2384 4.65205 14.3664 4.70805C14.4944 4.76405 14.5984 4.85605 14.6784 4.98405C14.7584 5.10405 14.7984 5.28405 14.7984 5.52405C14.7984 5.81205 14.7464 6.24405 14.6424 6.82005L14.4264 8.03205C14.3704 8.34405 14.3104 8.57205 14.2464 8.71605C14.1824 8.85205 14.0864 8.97205 13.9584 9.07605C13.8304 9.17205 13.5464 9.28405 13.1064 9.41205L11.1504 9.96405C10.8864 10.036 10.6904 10.1 10.5624 10.156C10.4344 10.204 10.3384 10.256 10.2744 10.312C10.2184 10.368 10.1704 10.436 10.1304 10.516C10.0984 10.596 10.0624 10.752 10.0224 10.984L9.79444 12.268H13.8864L13.3344 13.6H8.10244L8.57044 10.936C8.66644 10.408 8.75444 10.052 8.83444 9.86805C8.92244 9.67605 9.03044 9.52405 9.15844 9.41205C9.28644 9.29205 9.47044 9.18805 9.71044 9.10005C9.95044 9.00405 10.3344 8.88005 10.8624 8.72805L12.2064 8.34405C12.5344 8.24805 12.7464 8.16005 12.8424 8.08005C12.9384 7.99205 13.0064 7.83205 13.0464 7.60005L13.1904 6.78405C13.2464 6.46405 13.2744 6.26805 13.2744 6.19605C13.2744 6.04405 13.2184 5.94805 13.1064 5.90805C12.9944 5.86005 12.7784 5.83605 12.4584 5.83605H9.69844L9.45844 4.51605H13.0464Z" fill="#ED7B2F"/>
</svg>
