<svg xmlns="http://www.w3.org/2000/svg" fill="none" viewBox="0 0 27 16" class="design-iconfont">
  <path d="M2.844 15.684C1.996 15.684 1.384 15.548 1.008 15.276C0.64 15.012 0.456 14.552 0.456 13.896C0.456 13.52 0.512 13.028 0.624 12.42L1.272 8.78405C1.344 8.37605 1.432 8.03205 1.536 7.75205C1.64 7.47205 1.776 7.24005 1.944 7.05605C2.112 6.86405 2.344 6.71605 2.64 6.61205C2.944 6.50005 3.376 6.44405 3.936 6.44405H5.316C5.852 6.44405 6.296 6.49605 6.648 6.60005C7.008 6.70405 7.276 6.88805 7.452 7.15205C7.628 7.41605 7.716 7.77605 7.716 8.23205C7.716 8.29605 7.708 8.41605 7.692 8.59205C7.684 8.76005 7.632 9.12805 7.536 9.69605L6.888 13.344C6.808 13.808 6.704 14.192 6.576 14.496C6.456 14.792 6.296 15.024 6.096 15.192C5.904 15.368 5.656 15.492 5.352 15.564C5.056 15.644 4.684 15.684 4.236 15.684H2.844ZM3.468 14.376H4.08C4.32 14.376 4.524 14.348 4.692 14.292C4.868 14.228 5.012 14.104 5.124 13.92C5.236 13.728 5.34 13.356 5.436 12.804L5.88 10.188C6.04 9.28405 6.12 8.72405 6.12 8.50805C6.12 8.30805 6.076 8.15605 5.988 8.05205C5.908 7.94005 5.776 7.86405 5.592 7.82405C5.408 7.77605 5.112 7.75205 4.704 7.75205H4.08C3.84 7.75205 3.644 7.78005 3.492 7.83605C3.348 7.88405 3.228 7.96805 3.132 8.08805C3.044 8.20005 2.968 8.35205 2.904 8.54405C2.848 8.73605 2.792 8.99605 2.736 9.32405L2.28 11.928C2.12 12.824 2.04 13.388 2.04 13.62C2.04 13.852 2.1 14.024 2.22 14.136C2.348 14.248 2.524 14.316 2.748 14.34C2.972 14.364 3.212 14.376 3.468 14.376ZM11.7996 6.51605C12.4716 6.51605 12.9636 6.56005 13.2756 6.64805C13.5876 6.72805 13.8116 6.86405 13.9476 7.05605C14.0836 7.24005 14.1516 7.50405 14.1516 7.84805C14.1516 8.12805 14.1196 8.47205 14.0556 8.88005L13.9476 9.51605C13.8916 9.85205 13.7596 10.136 13.5516 10.368C13.3516 10.592 13.0516 10.748 12.6516 10.836C13.0036 10.916 13.2636 11.052 13.4316 11.244C13.6076 11.428 13.6956 11.676 13.6956 11.988C13.6956 12.1 13.6516 12.444 13.5636 13.02L13.4436 13.728C13.3236 14.424 13.0516 14.924 12.6276 15.228C12.2836 15.476 11.6956 15.6 10.8636 15.6H8.25956L8.03156 14.316H10.7796C11.0116 14.316 11.2156 14.292 11.3916 14.244C11.5756 14.188 11.7156 14.08 11.8116 13.92C11.9076 13.76 11.9836 13.524 12.0396 13.212L12.1236 12.744C12.1956 12.384 12.2316 12.124 12.2316 11.964C12.2316 11.868 12.2076 11.78 12.1596 11.7C12.1116 11.62 12.0196 11.568 11.8836 11.544C11.7476 11.52 11.5476 11.508 11.2836 11.508H9.84356L9.62756 10.236H11.2356C11.6756 10.236 11.9796 10.18 12.1476 10.068C12.3156 9.94805 12.4276 9.71605 12.4836 9.37205L12.5676 8.88005C12.6076 8.64005 12.6276 8.45605 12.6276 8.32805C12.6276 8.21605 12.6036 8.11605 12.5556 8.02805C12.5156 7.94005 12.4196 7.88005 12.2676 7.84805C12.1156 7.81605 11.8716 7.80005 11.5356 7.80005H9.33956L9.11156 6.51605H11.7996Z" fill="#F7C797"/>
</svg>
