<svg xmlns="http://www.w3.org/2000/svg" fill="none" viewBox="0 0 27 16" class="design-iconfont">
  <path d="M2.844 13.684C1.996 13.684 1.384 13.548 1.008 13.276C0.64 13.012 0.456 12.552 0.456 11.896C0.456 11.52 0.512 11.028 0.624 10.42L1.272 6.78405C1.344 6.37605 1.432 6.03205 1.536 5.75205C1.64 5.47205 1.776 5.24005 1.944 5.05605C2.112 4.86405 2.344 4.71605 2.64 4.61205C2.944 4.50005 3.376 4.44405 3.936 4.44405H5.316C5.852 4.44405 6.296 4.49605 6.648 4.60005C7.008 4.70405 7.276 4.88805 7.452 5.15205C7.628 5.41605 7.716 5.77605 7.716 6.23205C7.716 6.29605 7.708 6.41605 7.692 6.59205C7.684 6.76005 7.632 7.12805 7.536 7.69605L6.888 11.344C6.808 11.808 6.704 12.192 6.576 12.496C6.456 12.792 6.296 13.024 6.096 13.192C5.904 13.368 5.656 13.492 5.352 13.564C5.056 13.644 4.684 13.684 4.236 13.684H2.844ZM3.468 12.376H4.08C4.32 12.376 4.524 12.348 4.692 12.292C4.868 12.228 5.012 12.104 5.124 11.92C5.236 11.728 5.34 11.356 5.436 10.804L5.88 8.18805C6.04 7.28405 6.12 6.72405 6.12 6.50805C6.12 6.30805 6.076 6.15605 5.988 6.05205C5.908 5.94005 5.776 5.86405 5.592 5.82405C5.408 5.77605 5.112 5.75205 4.704 5.75205H4.08C3.84 5.75205 3.644 5.78005 3.492 5.83605C3.348 5.88405 3.228 5.96805 3.132 6.08805C3.044 6.20005 2.968 6.35205 2.904 6.54405C2.848 6.73605 2.792 6.99605 2.736 7.32405L2.28 9.92805C2.12 10.824 2.04 11.388 2.04 11.62C2.04 11.852 2.1 12.024 2.22 12.136C2.348 12.248 2.524 12.316 2.748 12.34C2.972 12.364 3.212 12.376 3.468 12.376ZM12.1939 7.94805C12.5539 7.94805 12.8499 7.97205 13.0819 8.02005C13.3219 8.06005 13.5099 8.12805 13.6459 8.22405C13.7899 8.32005 13.8939 8.44805 13.9579 8.60805C14.0219 8.76805 14.0539 8.96405 14.0539 9.19605C14.0539 9.54805 13.9979 10.036 13.8859 10.66L13.6939 11.728C13.6619 11.904 13.6139 12.092 13.5499 12.292C13.4859 12.492 13.3979 12.676 13.2859 12.844C13.1739 13.004 13.0259 13.14 12.8419 13.252C12.6659 13.372 12.4339 13.46 12.1459 13.516C11.8659 13.572 11.5259 13.6 11.1259 13.6H8.47388L8.25788 12.328H11.0299C11.4059 12.328 11.6579 12.304 11.7859 12.256C11.9139 12.2 12.0139 12.112 12.0859 11.992C12.1579 11.864 12.2299 11.604 12.3019 11.212L12.4219 10.54C12.4859 10.196 12.5179 9.93205 12.5179 9.74805C12.5179 9.59605 12.4739 9.48805 12.3859 9.42405C12.3059 9.35205 12.1939 9.31205 12.0499 9.30405C11.9059 9.28805 11.7499 9.28005 11.5819 9.28005H8.83388L9.66188 4.51605H14.5099L13.9819 5.80005H10.7539L10.3819 7.94805H12.1939Z" fill="#D0D0D0"/>
</svg>
