<svg xmlns="http://www.w3.org/2000/svg" fill="none" viewBox="0 0 16 10" class="design-iconfont">
  <path d="M2.844 9.68405C1.996 9.68405 1.384 9.54805 1.008 9.27605C0.64 9.01205 0.456 8.55205 0.456 7.89605C0.456 7.52005 0.512 7.02805 0.624 6.42005L1.272 2.78405C1.344 2.37605 1.432 2.03205 1.536 1.75205C1.64 1.47205 1.776 1.24005 1.944 1.05605C2.112 0.864045 2.344 0.716045 2.64 0.612045C2.944 0.500045 3.376 0.444045 3.936 0.444045H5.316C5.852 0.444045 6.296 0.496045 6.648 0.600045C7.008 0.704045 7.276 0.888045 7.452 1.15205C7.628 1.41605 7.716 1.77605 7.716 2.23205C7.716 2.29605 7.708 2.41605 7.692 2.59205C7.684 2.76005 7.632 3.12805 7.536 3.69605L6.888 7.34405C6.808 7.80805 6.704 8.19205 6.576 8.49605C6.456 8.79205 6.296 9.02405 6.096 9.19205C5.904 9.36805 5.656 9.49205 5.352 9.56405C5.056 9.64405 4.684 9.68405 4.236 9.68405H2.844ZM3.468 8.37605H4.08C4.32 8.37605 4.524 8.34805 4.692 8.29205C4.868 8.22805 5.012 8.10405 5.124 7.92005C5.236 7.72805 5.34 7.35605 5.436 6.80405L5.88 4.18805C6.04 3.28405 6.12 2.72405 6.12 2.50805C6.12 2.30805 6.076 2.15605 5.988 2.05205C5.908 1.94005 5.776 1.86405 5.592 1.82405C5.408 1.77605 5.112 1.75205 4.704 1.75205H4.08C3.84 1.75205 3.644 1.78005 3.492 1.83605C3.348 1.88405 3.228 1.96805 3.132 2.08805C3.044 2.20005 2.968 2.35205 2.904 2.54405C2.848 2.73605 2.792 2.99605 2.736 3.32405L2.28 5.92805C2.12 6.82405 2.04 7.38805 2.04 7.62005C2.04 7.85205 2.1 8.02405 2.22 8.13605C2.348 8.24805 2.524 8.31605 2.748 8.34005C2.972 8.36405 3.212 8.37605 3.468 8.37605ZM15.1596 5.74805L14.6316 7.03205H13.7676L13.3116 9.60005H11.8476L12.3036 7.03205H8.18756L8.36756 5.94005L11.5956 0.516046H13.1916L9.99956 5.74805H12.5316L13.0476 2.79605H14.5116L13.9956 5.74805H15.1596Z" fill="#D0D0D0"/>
</svg>
