<svg xmlns="http://www.w3.org/2000/svg" fill="none" viewBox="0 0 14 9" class="design-iconfont">
  <path fill-rule="evenodd" clip-rule="evenodd" d="M13.8831 4.72998L14 4.5L13.8831 4.27002C12.5386 1.64002 9.89843 0 7.00489 0C4.10157 0 1.46143 1.64002 0.116942 4.27002L0 4.5L0.116942 4.72998C1.46143 7.36999 4.10157 9 7.00489 9C9.89843 9 12.5386 7.36999 13.8831 4.72998ZM7.00488 1C9.4502 1 11.6814 2.33001 12.8992 4.5C11.6909 6.66999 9.4502 8 7.00488 8C4.54981 8 2.31861 6.66999 1.1106 4.5C2.31861 2.33001 4.54981 1 7.00488 1Z" fill="#1573FF"/>
  <path fill-rule="evenodd" clip-rule="evenodd" d="M9.87988 4.49994C9.87988 2.90948 8.59058 1.62012 7 1.62012C5.40942 1.62012 4.12012 2.90948 4.12012 4.49994C4.12012 6.09045 5.40942 7.37982 7 7.37982C8.59058 7.37982 9.87988 6.09045 9.87988 4.49994ZM5.12012 4.49994C5.12012 3.46173 5.96167 2.62012 7 2.62012C8.03809 2.62012 8.87988 3.46173 8.87988 4.49994C8.87988 5.53815 8.03809 6.37982 7 6.37982C5.96167 6.37982 5.12012 5.53815 5.12012 4.49994Z" fill="#1573FF"/>
</svg>
